<?xml version="1.0" encoding="UTF-8"?><svg id="Capa_1" xmlns="http://www.w3.org/2000/svg" viewBox="0 0 693.25 156"><defs><style>.cls-1{fill:#0280cc;}.cls-2{fill:#ffc352;}</style></defs><path class="cls-1" d="M272.62,78v78h-28v-18.14h0c-13.54,11.32-30.98,18.14-50,18.14-43.08,0-78-34.92-78-78S151.54,0,194.62,0s78,34.92,78,78ZM193.73,28c-27.61,0-50,22.39-50,50s22.39,50,50,50,50-22.39,50-50-22.39-50-50-50Z"/><path class="cls-1" d="M434.46,71C434.46,31.79,402.67,0,363.46,0s-71,31.79-71,71v85h27.5V71.5c0-24.02,19.48-43.5,43.5-43.5s43.5,19.48,43.5,43.5v84.5h27.5V71Z"/><rect class="cls-1" y="0" width="28" height="156"/><path class="cls-1" d="M33.67,78L93.51,0h0c14.43,0,22.59,16.55,13.81,28l-38.36,50h0s38.36,50,38.36,50c8.78,11.45,.62,28-13.81,28h0L33.67,78Z"/><path class="cls-2" d="M693.25,78L633.41,0h0c-14.43,0-22.59,16.55-13.81,28l38.36,50h0s-38.36,50-38.36,50c-8.78,11.45-.62,28,13.81,28h0l59.84-78Z"/><path class="cls-1" d="M600.1,116.59h0c-13.43,23.54-38.76,39.41-67.8,39.41-43.08,0-78-34.92-78-78S489.23,0,532.3,0s78,34.92,78,78c0,4.78-.43,9.46-1.25,14h-124.75c6.06,20.8,25.25,36,48,36,16.89,0,31.82-8.38,40.87-21.21l26.93,9.8Zm-115.8-52.59h96c-6.06-20.8-25.25-36-48-36s-41.94,15.2-48,36Z"/></svg>